<?xml version="1.0" encoding="UTF-8" standalone="no"?>
<!DOCTYPE svg PUBLIC "-//W3C//DTD SVG 1.1//EN" "http://www.w3.org/Graphics/SVG/1.1/DTD/svg11.dtd">
<svg version="1.1" xmlns="http://www.w3.org/2000/svg" xmlns:xlink="http://www.w3.org/1999/xlink" preserveAspectRatio="xMidYMid meet" viewBox="249.58333955223873 29.59701492537303 124.92287313432843 112.6567164179105" width="120.92" height="108.66"><defs><path d="M363.54 135.01C363.54 94.46 363.54 71.93 363.54 67.42C363.54 64.28 360.53 61.72 356.84 61.72C355.61 61.72 345.83 61.72 344.61 61.72C340.91 61.72 337.9 64.28 337.9 67.42C337.9 71.93 337.9 94.46 337.9 135.01L324.01 135.01C324.01 112.83 324.01 100.51 324.01 98.05C324.01 94.9 321 92.34 317.31 92.34C316.08 92.34 306.3 92.34 305.08 92.34C301.38 92.34 298.37 94.9 298.37 98.05C298.37 100.51 298.37 112.83 298.37 135.01L284.48 135.01C284.48 123.52 284.48 117.14 284.48 115.87C284.48 112.72 281.47 110.16 277.78 110.16C276.55 110.16 266.77 110.16 265.55 110.16C261.85 110.16 258.84 112.72 258.84 115.87C258.84 117.14 258.84 123.52 258.84 135.01C255.38 135.01 253.46 135.01 253.08 135.01C251.7 135.01 250.58 135.96 250.58 137.13C250.58 138.3 251.7 139.25 253.08 139.25C264.67 139.25 357.42 139.25 369.01 139.25C370.39 139.25 371.51 138.3 371.51 137.13C371.51 135.96 370.39 135.01 369.01 135.01C368.28 135.01 366.46 135.01 363.54 135.01ZM263.83 135.01C263.83 123.52 263.83 117.14 263.83 115.87C263.83 115.06 264.6 114.41 265.55 114.41C266.77 114.41 276.55 114.41 277.78 114.41C278.72 114.41 279.49 115.06 279.49 115.87C279.49 117.14 279.49 123.52 279.49 135.01L263.83 135.01ZM303.36 135.01C303.36 112.83 303.36 100.51 303.36 98.05C303.36 97.24 304.13 96.59 305.08 96.59C306.3 96.59 316.08 96.59 317.31 96.59C318.25 96.59 319.02 97.24 319.02 98.05C319.02 100.51 319.02 112.83 319.02 135.01L303.36 135.01ZM342.89 135.01C342.89 94.46 342.89 71.93 342.89 67.42C342.89 66.62 343.66 65.96 344.61 65.96C345.83 65.96 355.61 65.96 356.84 65.96C357.78 65.96 358.55 66.62 358.55 67.42C358.55 71.93 358.55 94.46 358.55 135.01L342.89 135.01Z" id="ab0xcxx6N"></path><path d="M362.81 31.22C362.29 30.78 361.6 30.57 360.92 30.6C360.88 30.6 360.84 30.6 360.8 30.6C359.29 30.6 347.22 30.6 345.71 30.6C344.33 30.6 343.21 31.55 343.21 32.72C343.21 33.89 344.33 34.84 345.71 34.84C346.33 34.84 349.43 34.84 355.02 34.84L330.37 55.82C324.79 51.07 321.69 48.44 321.07 47.91C320.6 47.51 319.97 47.29 319.3 47.29C318.64 47.29 318.01 47.51 317.54 47.91C313.06 51.72 277.19 82.25 272.7 86.06C271.73 86.89 271.73 88.23 272.7 89.06C273.19 89.48 273.83 89.68 274.46 89.68C275.1 89.68 275.74 89.48 276.23 89.06C279.1 86.62 293.46 74.4 319.3 52.41C324.88 57.16 327.98 59.8 328.6 60.32C329.58 61.15 331.16 61.15 332.13 60.32C333.89 58.82 342.7 51.33 358.55 37.84C358.55 42.15 358.55 44.54 358.55 45.02C358.55 46.19 359.67 47.14 361.05 47.14C362.42 47.14 363.54 46.19 363.54 45.02C363.54 43.81 363.54 34.14 363.54 32.93C363.54 32.9 363.54 32.86 363.54 32.83C363.57 32.25 363.33 31.66 362.81 31.22Z" id="d6puA9hwQ"></path><path d="M266.06 92.84C264.68 92.84 263.56 93.79 263.56 94.97C263.56 96.14 264.68 97.09 266.06 97.09C267.44 97.09 268.55 96.14 268.55 94.97C268.55 93.79 267.44 92.84 266.06 92.84Z" id="bgfw7iojX"></path></defs><g><g><use xlink:href="#ab0xcxx6N" opacity="1" fill="#e67c8b" fill-opacity="1"></use><g><use xlink:href="#ab0xcxx6N" opacity="1" fill-opacity="0" stroke="#000000" stroke-width="1" stroke-opacity="0"></use></g></g><g><use xlink:href="#d6puA9hwQ" opacity="1" fill="#e67c8b" fill-opacity="1"></use><g><use xlink:href="#d6puA9hwQ" opacity="1" fill-opacity="0" stroke="#000000" stroke-width="1" stroke-opacity="0"></use></g></g><g><use xlink:href="#bgfw7iojX" opacity="1" fill="#e67c8b" fill-opacity="1"></use><g><use xlink:href="#bgfw7iojX" opacity="1" fill-opacity="0" stroke="#000000" stroke-width="1" stroke-opacity="0"></use></g></g></g></svg>