<?xml version="1.0" encoding="UTF-8" standalone="no"?>
<!DOCTYPE svg PUBLIC "-//W3C//DTD SVG 1.1//EN" "http://www.w3.org/Graphics/SVG/1.1/DTD/svg11.dtd">
<svg version="1.1" xmlns="http://www.w3.org/2000/svg" xmlns:xlink="http://www.w3.org/1999/xlink" preserveAspectRatio="xMidYMid meet" viewBox="222.28070175438592 3.2719298245614024 131.9000000000001 107.99999999999997" width="127.9" height="104"><defs><path d="M293.63 94.63C293.63 84.61 293.63 79.04 293.63 77.92C293.63 76.98 292.67 76.22 291.49 76.22C290.32 76.22 289.36 76.98 289.36 77.92C289.36 79.04 289.36 84.61 289.36 94.63L233.94 94.63L233.94 60.53C244.58 60.53 250.49 60.53 251.67 60.53C252.85 60.53 253.81 59.77 253.81 58.83C253.81 57.89 252.85 57.12 251.67 57.12C249.69 57.12 233.79 57.12 231.81 57.12C230.63 57.12 229.68 57.89 229.68 58.83C229.68 61.22 229.68 73.15 229.68 94.63C227.12 94.63 225.7 94.63 225.41 94.63C224.24 94.63 223.28 95.4 223.28 96.34C223.28 96.68 223.28 99.41 223.28 99.75C223.28 104.46 228.05 108.27 233.94 108.27C239.48 108.27 283.82 108.27 289.36 108.27C295.25 108.27 300.02 104.46 300.02 99.75C300.02 99.41 300.02 96.68 300.02 96.34C300.02 95.4 299.07 94.63 297.89 94.63C297.32 94.63 295.9 94.63 293.63 94.63ZM295.76 99.75C295.76 102.57 292.89 104.86 289.36 104.86C289.08 104.86 287.66 104.86 285.1 104.86C285.1 103.84 285.1 103.27 285.1 103.16C285.1 102.22 284.14 101.45 282.97 101.45C281.79 101.45 280.84 102.22 280.84 103.16C280.84 103.27 280.84 103.84 280.84 104.86L242.47 104.86C242.47 103.84 242.47 103.27 242.47 103.16C242.47 102.22 241.51 101.45 240.33 101.45C239.16 101.45 238.2 102.22 238.2 103.16C238.2 103.27 238.2 103.84 238.2 104.86C235.64 104.86 234.22 104.86 233.94 104.86C230.41 104.86 227.54 102.57 227.54 99.75C227.54 99.63 227.54 99.07 227.54 98.04L295.76 98.04C295.76 98.95 295.76 99.52 295.76 99.75Z" id="cIZUWBhqa"></path><path d="M338.39 16.21C339.57 16.21 340.52 15.44 340.52 14.5C340.52 13.56 339.57 12.8 338.39 12.8C337.96 12.8 334.55 12.8 334.13 12.8C330.6 12.8 327.73 15.09 327.73 17.91C327.73 18.02 327.73 18.59 327.73 19.62C326.45 19.62 325.74 19.62 325.6 19.62C324.42 19.62 323.47 20.38 323.47 21.32C323.47 22.26 324.42 23.03 325.6 23.03C325.74 23.03 326.45 23.03 327.73 23.03C327.73 26.09 327.73 27.8 327.73 28.14C327.73 29.08 328.69 29.85 329.86 29.85C331.04 29.85 332 29.08 332 28.14C332 27.8 332 26.09 332 23.03C333.27 23.03 333.99 23.03 334.13 23.03C335.3 23.03 336.26 22.26 336.26 21.32C336.26 20.38 335.3 19.62 334.13 19.62C333.99 19.62 333.27 19.62 332 19.62C332 18.59 332 18.02 332 17.91C332 16.97 332.95 16.21 334.13 16.21C334.98 16.21 337.96 16.21 338.39 16.21Z" id="aIrvrAO9I"></path><path d="M319.21 5.98C315.67 5.98 312.81 8.27 312.81 11.09C312.81 11.43 312.81 14.16 312.81 14.5C312.81 15.44 313.77 16.21 314.94 16.21C316.12 16.21 317.07 15.44 317.07 14.5C317.07 14.16 317.07 11.43 317.07 11.09C317.07 10.15 318.03 9.39 319.21 9.39C321.76 9.39 342.23 9.39 344.79 9.39C345.96 9.39 346.92 10.15 346.92 11.09C346.92 13.14 346.92 29.5 346.92 31.55C346.92 32.49 345.96 33.26 344.79 33.26C342.23 33.26 321.76 33.26 319.21 33.26C318.03 33.26 317.07 32.49 317.07 31.55C317.07 30.53 317.07 22.34 317.07 21.32C317.07 20.38 316.12 19.62 314.94 19.62C313.77 19.62 312.81 20.38 312.81 21.32C312.81 22.34 312.81 30.53 312.81 31.55C312.81 34.38 315.67 36.67 319.21 36.67C321.76 36.67 342.23 36.67 344.79 36.67C348.32 36.67 351.18 34.38 351.18 31.55C351.18 29.5 351.18 13.14 351.18 11.09C351.18 8.27 348.32 5.98 344.79 5.98C339.67 5.98 321.76 5.98 319.21 5.98Z" id="h2cIzbV5P4"></path><path d="M332 80.99C336.7 80.99 340.52 77.94 340.52 74.17C340.52 70.41 336.7 67.35 332 67.35C327.29 67.35 323.47 70.41 323.47 74.17C323.47 77.94 327.29 80.99 332 80.99ZM332 77.58C329.64 77.58 327.73 76.06 327.73 74.17C327.73 72.29 329.64 70.76 332 70.76C334.35 70.76 336.26 72.29 336.26 74.17C336.26 76.06 334.35 77.58 332 77.58Z" id="aaBNAQlIt"></path><path d="M319.21 58.83C315.67 58.83 312.81 61.12 312.81 63.94C312.81 65.99 312.81 82.36 312.81 84.4C312.81 87.23 315.67 89.52 319.21 89.52C321.76 89.52 342.23 89.52 344.79 89.52C348.32 89.52 351.18 87.23 351.18 84.4C351.18 84.06 351.18 81.33 351.18 80.99C351.18 80.05 350.23 79.29 349.05 79.29C347.87 79.29 346.92 80.05 346.92 80.99C346.92 81.33 346.92 84.06 346.92 84.4C346.92 85.34 345.96 86.11 344.79 86.11C342.23 86.11 321.76 86.11 319.21 86.11C318.03 86.11 317.07 85.34 317.07 84.4C317.07 82.36 317.07 65.99 317.07 63.94C317.07 63 318.03 62.24 319.21 62.24C321.76 62.24 342.23 62.24 344.79 62.24C345.96 62.24 346.92 63 346.92 63.94C346.92 64.97 346.92 73.15 346.92 74.17C346.92 75.12 347.87 75.88 349.05 75.88C350.23 75.88 351.18 75.12 351.18 74.17C351.18 73.15 351.18 64.97 351.18 63.94C351.18 61.12 348.32 58.83 344.79 58.83C339.67 58.83 321.76 58.83 319.21 58.83Z" id="cxdIzFrmy"></path><path d="M272.31 26.44C272.64 26.43 272.97 26.37 273.27 26.25C274.55 25.74 284.78 21.65 286.06 21.13C287.11 20.7 287.52 19.68 286.98 18.84C286.78 18.52 286.46 18.26 286.06 18.1C284.78 17.59 274.55 13.5 273.27 12.98C272.22 12.56 270.94 12.9 270.41 13.74C270.26 13.98 270.18 14.24 270.18 14.5C270.18 15.52 270.18 23.71 270.18 24.73C270.18 25.32 270.55 25.87 271.18 26.18C271.52 26.35 271.91 26.44 272.31 26.44ZM274.44 17.26L280.32 19.62L274.44 21.97L274.44 17.26Z" id="kUg2wVSjw"></path><path d="M295.76 19.62C295.76 11.14 287.17 4.27 276.57 4.27C265.98 4.27 257.39 11.14 257.39 19.62C257.39 28.09 265.98 34.96 276.57 34.96C287.17 34.96 295.76 28.09 295.76 19.62ZM291.49 19.62C291.49 26.21 284.81 31.55 276.57 31.55C268.33 31.55 261.65 26.21 261.65 19.62C261.65 13.02 268.33 7.68 276.57 7.68C284.81 7.68 291.49 13.02 291.49 19.62Z" id="bzhOrCHU8"></path><path d="M299.59 41.1C300.23 40.42 305.35 34.96 305.99 34.28C306.7 33.53 306.5 32.46 305.56 31.89C304.62 31.33 303.29 31.48 302.58 32.23C301.94 32.91 296.82 38.37 296.18 39.05C295.48 39.81 295.67 40.87 296.61 41.44C296.98 41.66 297.43 41.78 297.89 41.78C298.56 41.78 299.19 41.53 299.59 41.1Z" id="b67ccmN0Gr"></path><path d="M304.28 48.6C304.75 48.6 305.19 48.48 305.56 48.26C306.42 47.75 313.24 43.66 314.09 43.14C315.03 42.58 315.22 41.51 314.52 40.76C313.81 40 312.47 39.85 311.53 40.42C310.68 40.93 303.86 45.02 303.01 45.53C302.06 46.1 301.87 47.16 302.58 47.92C302.98 48.35 303.61 48.6 304.28 48.6Z" id="b1Lt9AgzFA"></path><path d="M320.99 50.29C320.97 50.3 320.94 50.3 320.91 50.3C319.85 50.48 311.32 51.84 310.25 52.01C309.08 52.1 308.22 52.94 308.33 53.89C308.45 54.83 309.5 55.51 310.68 55.42C310.71 55.42 310.85 55.42 311.11 55.42C317.5 54.4 321.05 53.83 321.76 53.71C322.92 53.55 323.69 52.66 323.49 51.74C323.48 51.71 323.48 51.69 323.47 51.67C323.26 50.74 322.15 50.13 320.99 50.29Z" id="a3DOgelkaJ"></path><path d="M250.99 52.01C252.17 52.01 253.12 51.25 253.12 50.3C253.12 47.58 253.12 25.75 253.12 23.03C253.12 22.08 252.17 21.32 250.99 21.32C248.43 21.32 227.97 21.32 225.41 21.32C224.24 21.32 223.28 22.08 223.28 23.03C223.28 25.75 223.28 47.58 223.28 50.3C223.28 51.25 224.24 52.01 225.41 52.01C230.53 52.01 248.43 52.01 250.99 52.01ZM227.54 24.73L248.86 24.73L248.86 48.6L227.54 48.6L227.54 24.73Z" id="a5pNkzxqv"></path><path d="M238.2 28.14C237.03 28.14 236.07 28.9 236.07 29.85C236.07 30.79 237.03 31.55 238.2 31.55C238.63 31.55 242.04 31.55 242.47 31.55C243.64 31.55 244.6 30.79 244.6 29.85C244.6 28.9 243.64 28.14 242.47 28.14C241.61 28.14 238.63 28.14 238.2 28.14Z" id="a2TewB7bYr"></path><path d="M233.94 34.96C232.76 34.96 231.81 35.72 231.81 36.67C231.81 37.61 232.76 38.37 233.94 38.37C234.79 38.37 241.61 38.37 242.47 38.37C243.64 38.37 244.6 37.61 244.6 36.67C244.6 35.72 243.64 34.96 242.47 34.96C240.76 34.96 234.79 34.96 233.94 34.96Z" id="a3m38TGKXJ"></path><path d="M233.94 41.78C232.76 41.78 231.81 42.54 231.81 43.49C231.81 44.43 232.76 45.19 233.94 45.19C234.79 45.19 241.61 45.19 242.47 45.19C243.64 45.19 244.6 44.43 244.6 43.49C244.6 42.54 243.64 41.78 242.47 41.78C240.76 41.78 234.79 41.78 233.94 41.78Z" id="c26ajswfVP"></path><path d="M296.01 51.5C295.42 50.68 294.12 50.4 293.09 50.87C292.07 51.34 291.72 52.38 292.3 53.2C292.93 54.07 296.06 58.41 301.7 66.21C281.24 72.35 269.87 75.76 267.6 76.44C267.6 76.44 267.6 76.44 267.45 76.44C267.44 76.44 267.38 76.44 267.28 76.44L261.74 79C259.52 80.02 258.29 80.59 258.05 80.7C257.07 81.16 255.9 81.28 254.81 81.04C253.72 80.81 252.79 80.24 252.23 79.46C251.8 78.87 248.39 74.15 247.97 73.56C246.92 71.96 247.63 69.98 249.56 69.06C250.06 68.83 252.51 67.69 256.94 65.65C260.14 70.08 261.91 72.54 262.27 73.03C262.65 73.56 263.36 73.89 264.12 73.88C265.3 73.89 266.26 73.13 266.26 72.19C266.27 71.88 266.17 71.59 265.98 71.33C265.61 70.82 263.78 68.28 260.48 63.72L287.23 46.08C287.76 46.8 288.05 47.21 288.1 47.29C288.69 48.11 290 48.39 291.03 47.92C292.05 47.45 292.4 46.4 291.81 45.58C291.81 45.58 291.81 45.58 291.81 45.58C291.6 45.29 289.9 42.93 289.68 42.63C289.37 42.2 288.83 41.9 288.21 41.81C287.59 41.72 286.95 41.85 286.46 42.17C284.47 43.48 274.53 50.04 256.62 61.85C251.17 64.36 248.14 65.76 247.54 66.04C244.19 67.6 242.58 70.78 243.62 73.76C243.4 73.86 241.7 74.64 241.49 74.74C238.42 76.14 237.37 79.27 239.12 81.72C239.97 82.9 241.37 83.76 243.02 84.11C243.56 84.23 244.12 84.29 244.68 84.28C245.8 84.28 246.91 84.05 247.88 83.6C248.09 83.5 249.8 82.73 250.01 82.63C251.04 83.48 252.32 84.09 253.74 84.4C254.47 84.57 255.22 84.65 255.98 84.64C257.48 84.64 258.95 84.33 260.24 83.72C260.37 83.66 260.99 83.38 262.1 82.87C264.66 86.42 266.08 88.39 266.36 88.78C268.13 91.22 272.02 92.06 275.08 90.66C278.14 89.25 279.19 86.12 277.43 83.67C277.43 83.67 277.43 83.67 277.43 83.67C277.17 83.31 275.87 81.51 273.55 78.27C292.73 72.51 303.39 69.31 305.52 68.67C306.11 68.49 306.57 68.12 306.78 67.64C306.99 67.18 306.93 66.66 306.63 66.23C304.51 63.28 298.14 54.44 296.01 51.5ZM245.66 80.64C245.17 80.86 244.59 80.92 244.04 80.81C243.5 80.69 243.03 80.41 242.74 80.02C242.46 79.63 242.38 79.16 242.53 78.73C242.68 78.29 243.04 77.91 243.53 77.69C243.66 77.63 244.27 77.34 245.39 76.83L247.52 79.78C246.53 80.24 245.91 80.52 245.66 80.64ZM273.72 85.41C274 85.8 274.08 86.27 273.93 86.7C273.78 87.14 273.42 87.51 272.93 87.73C271.91 88.19 270.62 87.92 270.03 87.11C269.74 86.72 268.32 84.75 265.76 81.2L269.3 79.58L269.47 79.58C271.74 82.69 273.15 84.63 273.72 85.41Z" id="b7kuNqR0D"></path></defs><g><g><use xlink:href="#cIZUWBhqa" opacity="1" fill="#e67c8b" fill-opacity="1"></use><g><use xlink:href="#cIZUWBhqa" opacity="1" fill-opacity="0" stroke="#000000" stroke-width="1" stroke-opacity="0"></use></g></g><g><use xlink:href="#aIrvrAO9I" opacity="1" fill="#e67c8b" fill-opacity="1"></use><g><use xlink:href="#aIrvrAO9I" opacity="1" fill-opacity="0" stroke="#000000" stroke-width="1" stroke-opacity="0"></use></g></g><g><use xlink:href="#h2cIzbV5P4" opacity="1" fill="#e67c8b" fill-opacity="1"></use><g><use xlink:href="#h2cIzbV5P4" opacity="1" fill-opacity="0" stroke="#000000" stroke-width="1" stroke-opacity="0"></use></g></g><g><use xlink:href="#aaBNAQlIt" opacity="1" fill="#e67c8b" fill-opacity="1"></use><g><use xlink:href="#aaBNAQlIt" opacity="1" fill-opacity="0" stroke="#000000" stroke-width="1" stroke-opacity="0"></use></g></g><g><use xlink:href="#cxdIzFrmy" opacity="1" fill="#e67c8b" fill-opacity="1"></use><g><use xlink:href="#cxdIzFrmy" opacity="1" fill-opacity="0" stroke="#000000" stroke-width="1" stroke-opacity="0"></use></g></g><g><use xlink:href="#kUg2wVSjw" opacity="1" fill="#e67c8b" fill-opacity="1"></use><g><use xlink:href="#kUg2wVSjw" opacity="1" fill-opacity="0" stroke="#000000" stroke-width="1" stroke-opacity="0"></use></g></g><g><use xlink:href="#bzhOrCHU8" opacity="1" fill="#e67c8b" fill-opacity="1"></use><g><use xlink:href="#bzhOrCHU8" opacity="1" fill-opacity="0" stroke="#000000" stroke-width="1" stroke-opacity="0"></use></g></g><g><use xlink:href="#b67ccmN0Gr" opacity="1" fill="#e67c8b" fill-opacity="1"></use><g><use xlink:href="#b67ccmN0Gr" opacity="1" fill-opacity="0" stroke="#000000" stroke-width="1" stroke-opacity="0"></use></g></g><g><use xlink:href="#b1Lt9AgzFA" opacity="1" fill="#e67c8b" fill-opacity="1"></use><g><use xlink:href="#b1Lt9AgzFA" opacity="1" fill-opacity="0" stroke="#000000" stroke-width="1" stroke-opacity="0"></use></g></g><g><use xlink:href="#a3DOgelkaJ" opacity="1" fill="#e67c8b" fill-opacity="1"></use><g><use xlink:href="#a3DOgelkaJ" opacity="1" fill-opacity="0" stroke="#000000" stroke-width="1" stroke-opacity="0"></use></g></g><g><use xlink:href="#a5pNkzxqv" opacity="1" fill="#e67c8b" fill-opacity="1"></use><g><use xlink:href="#a5pNkzxqv" opacity="1" fill-opacity="0" stroke="#000000" stroke-width="1" stroke-opacity="0"></use></g></g><g><use xlink:href="#a2TewB7bYr" opacity="1" fill="#e67c8b" fill-opacity="1"></use><g><use xlink:href="#a2TewB7bYr" opacity="1" fill-opacity="0" stroke="#000000" stroke-width="1" stroke-opacity="0"></use></g></g><g><use xlink:href="#a3m38TGKXJ" opacity="1" fill="#e67c8b" fill-opacity="1"></use><g><use xlink:href="#a3m38TGKXJ" opacity="1" fill-opacity="0" stroke="#000000" stroke-width="1" stroke-opacity="0"></use></g></g><g><use xlink:href="#c26ajswfVP" opacity="1" fill="#e67c8b" fill-opacity="1"></use><g><use xlink:href="#c26ajswfVP" opacity="1" fill-opacity="0" stroke="#000000" stroke-width="1" stroke-opacity="0"></use></g></g><g><use xlink:href="#b7kuNqR0D" opacity="1" fill="#e67c8b" fill-opacity="1"></use><g><use xlink:href="#b7kuNqR0D" opacity="1" fill-opacity="0" stroke="#000000" stroke-width="1" stroke-opacity="0"></use></g></g></g></svg>