<?xml version="1.0" encoding="UTF-8" standalone="no"?>
<!DOCTYPE svg PUBLIC "-//W3C//DTD SVG 1.1//EN" "http://www.w3.org/Graphics/SVG/1.1/DTD/svg11.dtd">
<svg version="1.1" xmlns="http://www.w3.org/2000/svg" xmlns:xlink="http://www.w3.org/1999/xlink" preserveAspectRatio="xMidYMid meet" viewBox="245.2434963579604 6.697119522436864 108.11000000000001 107.99999999999999" width="104.11" height="104"><defs><path d="M258.23 45.63C258.53 45.93 258.92 46.08 259.31 46.08C259.7 46.08 260.09 45.93 260.39 45.63C260.98 45.04 260.98 44.07 260.39 43.48C260.14 43.23 258.91 42 256.69 39.78C258.91 37.56 260.14 36.32 260.39 36.08C260.98 35.48 260.98 34.52 260.39 33.92C259.79 33.33 258.83 33.33 258.23 33.92C257.76 34.4 253.93 38.22 253.46 38.7C253.17 38.98 253.01 39.37 253.01 39.78C253.01 40.18 253.17 40.57 253.46 40.85C254.41 41.81 257.28 44.68 258.23 45.63Z" id="bRBYnr9Gi"></path><path d="M273.35 39.78C271.13 42 269.9 43.23 269.65 43.48C269.06 44.07 269.06 45.04 269.65 45.63C269.95 45.93 270.34 46.08 270.73 46.08C271.12 46.08 271.51 45.93 271.81 45.63C272.29 45.15 276.11 41.33 276.59 40.85C277.18 40.26 277.18 39.29 276.59 38.7C276.11 38.22 272.29 34.4 271.81 33.92C271.21 33.33 270.25 33.33 269.65 33.92C269.06 34.52 269.06 35.48 269.65 36.08C270.15 36.57 271.38 37.8 273.35 39.78Z" id="bfztKKCKW"></path><path d="M263.31 46.08C263.91 46.08 264.49 45.71 264.72 45.11C265.1 44.15 268.1 36.51 268.48 35.56C268.79 34.77 268.4 33.89 267.62 33.58C266.83 33.27 265.95 33.66 265.64 34.44C265.27 35.4 262.26 43.04 261.89 44C261.58 44.78 261.97 45.66 262.75 45.97C262.93 46.04 263.12 46.08 263.31 46.08Z" id="b3WRgcNXU"></path><path d="M265.66 55.02C266.5 55.02 267.18 54.33 267.18 53.49C267.18 52.65 266.5 51.97 265.66 51.97C264.63 51.97 256.42 51.97 255.4 51.97C254.55 51.97 253.87 52.65 253.87 53.49C253.87 54.33 254.55 55.02 255.4 55.02C257.45 55.02 264.63 55.02 265.66 55.02Z" id="a11oiBUTbu"></path><path d="M271.26 51.97C270.41 51.97 269.73 52.65 269.73 53.49C269.73 54.33 270.41 55.02 271.26 55.02C273.06 55.02 287.5 55.02 289.3 55.02C290.14 55.02 290.83 54.33 290.83 53.49C290.83 52.65 290.14 51.97 289.3 51.97C285.69 51.97 273.06 51.97 271.26 51.97Z" id="e1h9tTzPgd"></path><path d="M259.77 61.44C260.61 61.44 261.29 60.76 261.29 59.92C261.29 59.08 260.61 58.4 259.77 58.4C259.33 58.4 255.83 58.4 255.4 58.4C254.55 58.4 253.87 59.08 253.87 59.92C253.87 60.76 254.55 61.44 255.4 61.44C256.27 61.44 259.33 61.44 259.77 61.44Z" id="dITgNwCq"></path><path d="M283.73 58.4C282.89 58.4 282.2 59.08 282.2 59.92C282.2 60.76 282.89 61.44 283.73 61.44C283.99 61.44 286.12 61.44 286.39 61.44C287.23 61.44 287.91 60.76 287.91 59.92C287.91 59.08 287.23 58.4 286.39 58.4C285.86 58.4 284.26 58.4 283.73 58.4Z" id="c2rYQYs0q5"></path><path d="M278.19 58.4C276.89 58.4 266.42 58.4 265.11 58.4C264.27 58.4 263.59 59.08 263.59 59.92C263.59 60.76 264.27 61.44 265.11 61.44C266.42 61.44 276.89 61.44 278.19 61.44C279.03 61.44 279.72 60.76 279.72 59.92C279.72 59.08 279.03 58.4 278.19 58.4Z" id="bcqZQRqQH"></path><path d="M291.22 61.44C291.72 61.44 295.71 61.44 296.21 61.44C297.05 61.44 297.73 60.76 297.73 59.92C297.73 59.08 297.05 58.4 296.21 58.4C295.71 58.4 291.72 58.4 291.22 58.4C290.38 58.4 289.7 59.08 289.7 59.92C289.7 60.76 290.38 61.44 291.22 61.44Z" id="a2mQLGtHq"></path><path d="M286.66 41C287.5 41 288.19 40.32 288.19 39.47C288.19 38.63 287.5 37.95 286.66 37.95C286.13 37.95 281.93 37.95 281.4 37.95C280.56 37.95 279.88 38.63 279.88 39.47C279.88 40.32 280.56 41 281.4 41C282.45 41 286.13 41 286.66 41Z" id="bJvnY2pjn"></path><path d="M324.65 41C325.49 41 326.17 40.32 326.17 39.47C326.17 38.63 325.49 37.95 324.65 37.95C321.44 37.95 295.76 37.95 292.55 37.95C291.71 37.95 291.03 38.63 291.03 39.47C291.03 40.32 291.71 41 292.55 41C298.97 41 321.44 41 324.65 41Z" id="cxQMroNZs"></path><path d="M306.77 44.65C305.93 44.65 305.25 45.34 305.25 46.18C305.25 47.02 305.93 47.7 306.77 47.7C308.07 47.7 318.48 47.7 319.78 47.7C320.62 47.7 321.3 47.02 321.3 46.18C321.3 45.34 320.62 44.65 319.78 44.65C317.18 44.65 308.07 44.65 306.77 44.65Z" id="c4gPnhrE6L"></path><path d="M297.43 44.65C296.59 44.65 295.9 45.34 295.9 46.18C295.9 47.02 296.59 47.7 297.43 47.7C297.88 47.7 301.45 47.7 301.9 47.7C302.74 47.7 303.42 47.02 303.42 46.18C303.42 45.34 302.74 44.65 301.9 44.65C301 44.65 297.88 44.65 297.43 44.65Z" id="a2IjLVHTVF"></path><path d="M292.35 47.7C293.19 47.7 293.87 47.02 293.87 46.18C293.87 45.34 293.19 44.65 292.35 44.65C291.25 44.65 282.5 44.65 281.4 44.65C280.56 44.65 279.88 45.34 279.88 46.18C279.88 47.02 280.56 47.7 281.4 47.7C283.59 47.7 291.25 47.7 292.35 47.7Z" id="bSklWf8m3"></path><path d="M267.95 64.77C267.11 64.77 266.42 65.45 266.42 66.29C266.42 67.13 267.11 67.82 267.95 67.82C268.97 67.82 277.19 67.82 278.21 67.82C279.05 67.82 279.74 67.13 279.74 66.29C279.74 65.45 279.05 64.77 278.21 64.77C276.16 64.77 268.97 64.77 267.95 64.77Z" id="ea85ZPhu"></path><path d="M255.4 64.77C254.55 64.77 253.87 65.45 253.87 66.29C253.87 67.13 254.55 67.82 255.4 67.82C256.18 67.82 262.49 67.82 263.28 67.82C264.12 67.82 264.8 67.13 264.8 66.29C264.8 65.45 264.12 64.77 263.28 64.77C261.7 64.77 256.18 64.77 255.4 64.77Z" id="a3V6j0qtg"></path><path d="M283.41 64.77C282.57 64.77 281.89 65.45 281.89 66.29C281.89 67.13 282.57 67.82 283.41 67.82C284.75 67.82 295.48 67.82 296.82 67.82C297.66 67.82 298.34 67.13 298.34 66.29C298.34 65.45 297.66 64.77 296.82 64.77C294.14 64.77 284.75 64.77 283.41 64.77Z" id="aINY4Ktq"></path><path d="M307.62 56.94C306.78 56.94 306.1 57.62 306.1 58.46C306.1 59.31 306.78 59.99 307.62 59.99C308.35 59.99 314.22 59.99 314.95 59.99C315.79 59.99 316.48 59.31 316.48 58.46C316.48 57.62 315.79 56.94 314.95 56.94C313.49 56.94 308.35 56.94 307.62 56.94Z" id="aHfCX6VQU"></path><path d="M338.03 59.99C338.87 59.99 339.55 59.31 339.55 58.46C339.55 57.62 338.87 56.94 338.03 56.94C336.99 56.94 328.71 56.94 327.68 56.94C326.83 56.94 326.15 57.62 326.15 58.46C326.15 59.31 326.83 59.99 327.68 59.99C329.75 59.99 336.99 59.99 338.03 59.99Z" id="c8xBVftt4"></path><path d="M320.13 56.94C319.29 56.94 318.6 57.62 318.6 58.46C318.6 59.31 319.29 59.99 320.13 59.99C320.37 59.99 322.26 59.99 322.5 59.99C323.34 59.99 324.02 59.31 324.02 58.46C324.02 57.62 323.34 56.94 322.5 56.94C322.03 56.94 320.37 56.94 320.13 56.94Z" id="dONMbchRM"></path><path d="M314.95 76.59C315.79 76.59 316.48 75.91 316.48 75.07C316.48 74.23 315.79 73.55 314.95 73.55C314.22 73.55 308.35 73.55 307.62 73.55C306.78 73.55 306.1 74.23 306.1 75.07C306.1 75.91 306.78 76.59 307.62 76.59C309.09 76.59 314.22 76.59 314.95 76.59Z" id="a8gExY5Pw"></path><path d="M338.03 76.59C338.87 76.59 339.55 75.91 339.55 75.07C339.55 74.23 338.87 73.55 338.03 73.55C336.99 73.55 328.71 73.55 327.68 73.55C326.83 73.55 326.15 74.23 326.15 75.07C326.15 75.91 326.83 76.59 327.68 76.59C329.75 76.59 336.99 76.59 338.03 76.59Z" id="bNFuKGIOv"></path><path d="M322.5 76.59C323.34 76.59 324.02 75.91 324.02 75.07C324.02 74.23 323.34 73.55 322.5 73.55C322.26 73.55 320.37 73.55 320.13 73.55C319.29 73.55 318.6 74.23 318.6 75.07C318.6 75.91 319.29 76.59 320.13 76.59C320.6 76.59 322.26 76.59 322.5 76.59Z" id="aSpnieMP3"></path><path d="M307.62 90.15C306.78 90.15 306.1 90.83 306.1 91.67C306.1 92.52 306.78 93.2 307.62 93.2C308.35 93.2 314.22 93.2 314.95 93.2C315.79 93.2 316.48 92.52 316.48 91.67C316.48 90.83 315.79 90.15 314.95 90.15C313.49 90.15 308.35 90.15 307.62 90.15Z" id="a2U48xa5Qm"></path><path d="M327.68 90.15C326.83 90.15 326.15 90.83 326.15 91.67C326.15 92.52 326.83 93.2 327.68 93.2C328.71 93.2 336.99 93.2 338.03 93.2C338.87 93.2 339.55 92.52 339.55 91.67C339.55 90.83 338.87 90.15 338.03 90.15C335.96 90.15 328.71 90.15 327.68 90.15Z" id="c6fGZpwDzw"></path><path d="M320.13 90.15C319.29 90.15 318.6 90.83 318.6 91.67C318.6 92.52 319.29 93.2 320.13 93.2C320.37 93.2 322.26 93.2 322.5 93.2C323.34 93.2 324.02 92.52 324.02 91.67C324.02 90.83 323.34 90.15 322.5 90.15C322.03 90.15 320.37 90.15 320.13 90.15Z" id="b1r9NU72Yl"></path><path d="M252.95 7.7C249.25 7.7 246.24 10.71 246.24 14.4C246.24 21.78 246.24 80.76 246.24 88.13C246.24 91.83 249.25 94.84 252.95 94.84C253.52 94.84 258.11 94.84 258.68 94.84C259.53 94.84 260.21 94.15 260.21 93.31C260.21 92.47 259.53 91.79 258.68 91.79C258.11 91.79 253.52 91.79 252.95 91.79C250.93 91.79 249.29 90.15 249.29 88.13C249.29 87.74 249.29 85.82 249.29 82.35L304.8 82.35L304.8 84.98C304.08 84.98 303.68 84.98 303.59 84.98C301.94 84.98 300.6 86.32 300.6 87.97C300.6 88.23 300.6 89.5 300.6 91.79C281.01 91.79 270.12 91.79 267.95 91.79C267.11 91.79 266.42 92.47 266.42 93.31C266.42 94.15 267.11 94.84 267.95 94.84C268.92 94.84 273.81 94.84 282.6 94.84L282.6 100.3C279.84 100.3 278.3 100.3 278 100.3C274.93 100.3 272.43 102.8 272.43 105.87C272.43 106.2 272.43 108.83 272.43 109.16C272.43 110.56 273.57 111.7 274.97 111.7C279.63 111.7 316.86 111.7 321.51 111.7C322.91 111.7 324.05 110.56 324.05 109.16C324.05 108.83 324.05 106.2 324.05 105.87C324.05 102.8 321.55 100.3 318.48 100.3C318.18 100.3 316.64 100.3 313.88 100.3L313.88 98.37C330.78 98.37 340.17 98.37 342.05 98.37C343.7 98.37 345.05 97.03 345.05 95.38C345.05 95.31 345.05 94.73 345.05 94.66C348.02 93.97 350.24 91.31 350.24 88.13C350.25 80.76 350.34 21.78 350.35 14.4C350.35 10.71 347.35 7.7 343.65 7.7C343.65 7.7 262.02 7.7 252.95 7.7ZM303.65 78.72L303.65 71.42L342 71.42L342 78.72L303.65 78.72ZM307.85 68.37L307.85 65.16L337.8 65.16L337.8 68.37L307.85 68.37ZM337.8 81.77L337.8 84.98L307.85 84.98L307.85 81.77L337.8 81.77ZM285.64 94.84L300.6 94.84C300.6 95.16 300.6 95.34 300.6 95.38C300.6 97.03 301.94 98.37 303.59 98.37C304.08 98.37 306.49 98.37 310.84 98.37L310.84 100.3L285.64 100.3L285.64 94.84ZM318.49 103.35C319.87 103.35 321 104.48 321 105.87C321 106.05 321 106.98 321 108.65L275.48 108.65C275.48 106.98 275.48 106.05 275.48 105.87C275.48 104.48 276.61 103.35 278 103.35C286.09 103.35 310.39 103.35 318.49 103.35ZM342 95.33L303.65 95.33L303.65 88.02L342 88.02L342 95.33ZM347.19 88.13C347.19 89.61 346.31 90.88 345.05 91.45C345.05 91.11 345.05 88.32 345.05 87.97C345.05 86.32 343.7 84.98 342.05 84.98C341.97 84.98 341.57 84.98 340.84 84.98L340.84 82.35L347.19 82.35C347.19 85.43 347.19 87.36 347.19 88.13ZM347.19 79.3C345.88 79.3 345.15 79.3 345 79.3C345.03 79.13 345.05 71.37 345.05 71.37C345.05 69.71 343.7 68.37 342.05 68.37C341.97 68.37 341.57 68.37 340.84 68.37L340.84 65.16C341.57 65.16 341.97 65.16 342.05 65.16C343.7 65.16 345.05 63.82 345.05 62.17C345.05 61.43 345.05 55.5 345.05 54.76C345.05 53.11 343.7 51.77 342.05 51.77C341.19 51.77 334.31 51.77 333.45 51.77C332.6 51.77 331.92 52.45 331.92 53.29C331.92 54.13 332.6 54.81 333.45 54.81C334.02 54.81 336.87 54.81 342 54.81L342 62.12L303.65 62.12L303.65 54.81C315.84 54.81 322.61 54.81 323.97 54.81C324.81 54.81 325.49 54.13 325.49 53.29C325.49 52.45 324.81 51.77 323.97 51.77C321.93 51.77 305.63 51.77 303.59 51.77C301.94 51.77 300.6 53.11 300.6 54.76C300.6 55.5 300.6 61.43 300.6 62.17C300.6 63.82 301.94 65.16 303.59 65.16C303.68 65.16 304.08 65.16 304.8 65.16L304.8 68.37C304.08 68.37 303.68 68.37 303.59 68.37C301.94 68.37 300.6 69.72 300.6 71.37C300.6 71.37 300.62 79.13 300.65 79.3C297.22 79.3 280.11 79.3 249.29 79.3L249.29 28.42L347.19 28.42L347.19 79.3ZM347.19 25.38L249.4 25.38C249.4 18.79 249.4 15.13 249.4 14.4C249.4 12.39 251.04 10.74 253.06 10.74C262.11 10.74 334.49 10.74 343.53 10.74C345.55 10.74 347.19 12.39 347.19 14.4C347.19 15.87 347.19 19.52 347.19 25.38Z" id="a4Rpn6erb"></path><path d="M253.01 18.02C253.01 20.48 255.01 22.49 257.48 22.49C259.95 22.49 261.95 20.48 261.95 18.02C261.95 15.55 259.95 13.55 257.48 13.55C255.01 13.55 253.01 15.55 253.01 18.02ZM256.06 18.02C256.06 17.23 256.7 16.59 257.48 16.59C258.27 16.59 258.9 17.23 258.9 18.02C258.9 18.8 258.27 19.44 257.48 19.44C256.7 19.44 256.06 18.8 256.06 18.02Z" id="aNEnrYnbM"></path><path d="M264.39 18.02C264.39 20.48 266.4 22.49 268.87 22.49C271.33 22.49 273.34 20.48 273.34 18.02C273.34 15.55 271.33 13.55 268.87 13.55C266.4 13.55 264.39 15.55 264.39 18.02ZM267.44 18.02C267.44 17.23 268.08 16.59 268.87 16.59C269.65 16.59 270.29 17.23 270.29 18.02C270.29 18.8 269.65 19.44 268.87 19.44C268.08 19.44 267.44 18.8 267.44 18.02Z" id="bcNoxxurW"></path><path d="M275.78 18.02C275.78 20.48 277.78 22.49 280.25 22.49C282.71 22.49 284.72 20.48 284.72 18.02C284.72 15.55 282.71 13.55 280.25 13.55C277.78 13.55 275.78 15.55 275.78 18.02ZM278.82 18.02C278.82 17.23 279.46 16.59 280.25 16.59C281.03 16.59 281.67 17.23 281.67 18.02C281.67 18.8 281.03 19.44 280.25 19.44C279.46 19.44 278.82 18.8 278.82 18.02Z" id="a3sZLVM8Dx"></path></defs><g><g><use xlink:href="#bRBYnr9Gi" opacity="1" fill="#e67c8b" fill-opacity="1"></use><g><use xlink:href="#bRBYnr9Gi" opacity="1" fill-opacity="0" stroke="#000000" stroke-width="1" stroke-opacity="0"></use></g></g><g><use xlink:href="#bfztKKCKW" opacity="1" fill="#e67c8b" fill-opacity="1"></use><g><use xlink:href="#bfztKKCKW" opacity="1" fill-opacity="0" stroke="#000000" stroke-width="1" stroke-opacity="0"></use></g></g><g><use xlink:href="#b3WRgcNXU" opacity="1" fill="#e67c8b" fill-opacity="1"></use><g><use xlink:href="#b3WRgcNXU" opacity="1" fill-opacity="0" stroke="#000000" stroke-width="1" stroke-opacity="0"></use></g></g><g><use xlink:href="#a11oiBUTbu" opacity="1" fill="#e67c8b" fill-opacity="1"></use><g><use xlink:href="#a11oiBUTbu" opacity="1" fill-opacity="0" stroke="#000000" stroke-width="1" stroke-opacity="0"></use></g></g><g><use xlink:href="#e1h9tTzPgd" opacity="1" fill="#e67c8b" fill-opacity="1"></use><g><use xlink:href="#e1h9tTzPgd" opacity="1" fill-opacity="0" stroke="#000000" stroke-width="1" stroke-opacity="0"></use></g></g><g><use xlink:href="#dITgNwCq" opacity="1" fill="#e67c8b" fill-opacity="1"></use><g><use xlink:href="#dITgNwCq" opacity="1" fill-opacity="0" stroke="#000000" stroke-width="1" stroke-opacity="0"></use></g></g><g><use xlink:href="#c2rYQYs0q5" opacity="1" fill="#e67c8b" fill-opacity="1"></use><g><use xlink:href="#c2rYQYs0q5" opacity="1" fill-opacity="0" stroke="#000000" stroke-width="1" stroke-opacity="0"></use></g></g><g><use xlink:href="#bcqZQRqQH" opacity="1" fill="#e67c8b" fill-opacity="1"></use><g><use xlink:href="#bcqZQRqQH" opacity="1" fill-opacity="0" stroke="#000000" stroke-width="1" stroke-opacity="0"></use></g></g><g><use xlink:href="#a2mQLGtHq" opacity="1" fill="#e67c8b" fill-opacity="1"></use><g><use xlink:href="#a2mQLGtHq" opacity="1" fill-opacity="0" stroke="#000000" stroke-width="1" stroke-opacity="0"></use></g></g><g><use xlink:href="#bJvnY2pjn" opacity="1" fill="#e67c8b" fill-opacity="1"></use><g><use xlink:href="#bJvnY2pjn" opacity="1" fill-opacity="0" stroke="#000000" stroke-width="1" stroke-opacity="0"></use></g></g><g><use xlink:href="#cxQMroNZs" opacity="1" fill="#e67c8b" fill-opacity="1"></use><g><use xlink:href="#cxQMroNZs" opacity="1" fill-opacity="0" stroke="#000000" stroke-width="1" stroke-opacity="0"></use></g></g><g><use xlink:href="#c4gPnhrE6L" opacity="1" fill="#e67c8b" fill-opacity="1"></use><g><use xlink:href="#c4gPnhrE6L" opacity="1" fill-opacity="0" stroke="#000000" stroke-width="1" stroke-opacity="0"></use></g></g><g><use xlink:href="#a2IjLVHTVF" opacity="1" fill="#e67c8b" fill-opacity="1"></use><g><use xlink:href="#a2IjLVHTVF" opacity="1" fill-opacity="0" stroke="#000000" stroke-width="1" stroke-opacity="0"></use></g></g><g><use xlink:href="#bSklWf8m3" opacity="1" fill="#e67c8b" fill-opacity="1"></use><g><use xlink:href="#bSklWf8m3" opacity="1" fill-opacity="0" stroke="#000000" stroke-width="1" stroke-opacity="0"></use></g></g><g><use xlink:href="#ea85ZPhu" opacity="1" fill="#e67c8b" fill-opacity="1"></use><g><use xlink:href="#ea85ZPhu" opacity="1" fill-opacity="0" stroke="#000000" stroke-width="1" stroke-opacity="0"></use></g></g><g><use xlink:href="#a3V6j0qtg" opacity="1" fill="#e67c8b" fill-opacity="1"></use><g><use xlink:href="#a3V6j0qtg" opacity="1" fill-opacity="0" stroke="#000000" stroke-width="1" stroke-opacity="0"></use></g></g><g><use xlink:href="#aINY4Ktq" opacity="1" fill="#e67c8b" fill-opacity="1"></use><g><use xlink:href="#aINY4Ktq" opacity="1" fill-opacity="0" stroke="#000000" stroke-width="1" stroke-opacity="0"></use></g></g><g><use xlink:href="#aHfCX6VQU" opacity="1" fill="#e67c8b" fill-opacity="1"></use><g><use xlink:href="#aHfCX6VQU" opacity="1" fill-opacity="0" stroke="#000000" stroke-width="1" stroke-opacity="0"></use></g></g><g><use xlink:href="#c8xBVftt4" opacity="1" fill="#e67c8b" fill-opacity="1"></use><g><use xlink:href="#c8xBVftt4" opacity="1" fill-opacity="0" stroke="#000000" stroke-width="1" stroke-opacity="0"></use></g></g><g><use xlink:href="#dONMbchRM" opacity="1" fill="#e67c8b" fill-opacity="1"></use><g><use xlink:href="#dONMbchRM" opacity="1" fill-opacity="0" stroke="#000000" stroke-width="1" stroke-opacity="0"></use></g></g><g><use xlink:href="#a8gExY5Pw" opacity="1" fill="#e67c8b" fill-opacity="1"></use><g><use xlink:href="#a8gExY5Pw" opacity="1" fill-opacity="0" stroke="#000000" stroke-width="1" stroke-opacity="0"></use></g></g><g><use xlink:href="#bNFuKGIOv" opacity="1" fill="#e67c8b" fill-opacity="1"></use><g><use xlink:href="#bNFuKGIOv" opacity="1" fill-opacity="0" stroke="#000000" stroke-width="1" stroke-opacity="0"></use></g></g><g><use xlink:href="#aSpnieMP3" opacity="1" fill="#e67c8b" fill-opacity="1"></use><g><use xlink:href="#aSpnieMP3" opacity="1" fill-opacity="0" stroke="#000000" stroke-width="1" stroke-opacity="0"></use></g></g><g><use xlink:href="#a2U48xa5Qm" opacity="1" fill="#e67c8b" fill-opacity="1"></use><g><use xlink:href="#a2U48xa5Qm" opacity="1" fill-opacity="0" stroke="#000000" stroke-width="1" stroke-opacity="0"></use></g></g><g><use xlink:href="#c6fGZpwDzw" opacity="1" fill="#e67c8b" fill-opacity="1"></use><g><use xlink:href="#c6fGZpwDzw" opacity="1" fill-opacity="0" stroke="#000000" stroke-width="1" stroke-opacity="0"></use></g></g><g><use xlink:href="#b1r9NU72Yl" opacity="1" fill="#e67c8b" fill-opacity="1"></use><g><use xlink:href="#b1r9NU72Yl" opacity="1" fill-opacity="0" stroke="#000000" stroke-width="1" stroke-opacity="0"></use></g></g><g><use xlink:href="#a4Rpn6erb" opacity="1" fill="#e67c8b" fill-opacity="1"></use><g><use xlink:href="#a4Rpn6erb" opacity="1" fill-opacity="0" stroke="#000000" stroke-width="1" stroke-opacity="0"></use></g></g><g><use xlink:href="#aNEnrYnbM" opacity="1" fill="#e67c8b" fill-opacity="1"></use><g><use xlink:href="#aNEnrYnbM" opacity="1" fill-opacity="0" stroke="#000000" stroke-width="1" stroke-opacity="0"></use></g></g><g><use xlink:href="#bcNoxxurW" opacity="1" fill="#e67c8b" fill-opacity="1"></use><g><use xlink:href="#bcNoxxurW" opacity="1" fill-opacity="0" stroke="#000000" stroke-width="1" stroke-opacity="0"></use></g></g><g><use xlink:href="#a3sZLVM8Dx" opacity="1" fill="#e67c8b" fill-opacity="1"></use><g><use xlink:href="#a3sZLVM8Dx" opacity="1" fill-opacity="0" stroke="#000000" stroke-width="1" stroke-opacity="0"></use></g></g></g></svg>