<svg width="632.3461042751472" height="133.9295841584159" xmlns="http://www.w3.org/2000/svg" xmlns:xlink="http://www.w3.org/1999/xlink" preserveAspectRatio="xMidYMid meet">
 <defs>
  <path id="b5QcysGl5" d="m87.57,68.19c-19.16,62.76 -19.55,64.48 -13.45,64.48c1.27,0 2.79,-0.79 3.42,-1.72c2.42,-3.19 37.33,-120.47 36.95,-124.05c-0.51,-4.38 -5.21,-5.71 -7.11,-1.99c-0.76,1.33 -9.65,29.85 -19.81,63.28z"/>
  <path id="j8HbJ3sYZt" d="m387.67,33.96c-0.76,4.38 -1.27,7.96 -1.27,8.1c0,0.26 -1.65,0.4 -3.81,0.4c-3.43,0 -3.81,0.39 -3.81,3.98c0,3.58 0.38,3.98 3.81,3.98c0.26,0 1.52,0 3.81,0l0,28.52l0,28.53l5.08,0l5.08,0l0,-28.53l0,-28.52l8.88,0l8.89,0l0,-3.98l0,-3.98l-9.02,0l-9.01,0c0.53,-3.43 0.83,-5.33 0.89,-5.71c1.78,-11.28 7.36,-15.65 15.49,-12.21c2.41,1.07 4.69,1.99 4.82,1.99c0.26,0 1.02,-1.85 1.78,-4.11c1.27,-3.85 1.14,-4.11 -3.05,-5.97c-6.09,-2.65 -14.47,-2.39 -19.29,0.8c-5.59,3.45 -7.87,7.69 -9.27,16.71z"/>
  <path id="a15jBgL8Hj" d="m202.33,43.12c0,14.19 4.06,17.78 28.18,24.54c19.81,5.58 25.14,10.22 23.36,20.3c-2.41,13.54 -27.67,15.79 -44.05,3.98c-6.85,-4.91 -6.73,-4.91 -10.15,1.33c-1.66,3.05 0.25,4.78 11.55,10.61c7.74,3.98 9.14,4.25 21.58,4.25c11.68,0 14.09,-0.4 19.67,-3.32c8.76,-4.51 12.06,-10.08 12.06,-20.3c0,-14.46 -5.58,-19.63 -27.29,-25.21c-6.98,-1.85 -14.22,-3.98 -16.12,-4.77c-5.46,-2.12 -8.63,-6.63 -8.63,-12.21c0,-15.39 22.59,-21.09 38.59,-9.82c2.54,1.86 4.95,3.32 5.2,3.32c0.38,0 1.53,-1.46 2.67,-3.32c2.03,-3.18 1.9,-3.58 0,-5.83c-5.59,-6.5 -24.25,-10.62 -35.93,-8.1c-13.83,3.06 -20.69,11.15 -20.69,24.55z"/>
  <path id="ar4rvLYN8" d="m425.75,107.47c11.66,0 18.13,0 19.43,0c21.7,0 26.02,-0.93 34.78,-7.04c19.42,-13.66 22.34,-51.61 5.33,-69.92c-9.01,-9.68 -13.84,-11.14 -38.21,-11.67c-1.42,-0.04 -8.53,-0.21 -21.33,-0.53l0,44.58l0,44.58zm57.25,-61.3c6.61,18.18 2.16,38.34 -10.41,47.23c-6.34,4.51 -12.94,6.1 -25.51,6.1c-0.75,0 -4.47,0 -11.17,0l0,-36.75l0,-36.61c8,0.47 12.44,0.74 13.33,0.79c8.88,0.53 15.1,1.59 18.66,3.32c5.84,2.65 13.07,10.35 15.1,15.92z"/>
  <path id="a2a7KJ5gn7" d="m278.5,42.46c-2.67,0 -4.15,0 -4.45,0c-4.06,0 -4.44,0.26 -4.44,3.98c0,3.71 0.38,3.98 4.44,3.98c0.3,0 1.78,0 4.45,0c0,15.04 0,23.4 0,25.07c0,24.41 0.12,25.34 2.92,28.79c3.68,4.38 12.95,5.71 20.56,2.79c4.19,-1.59 5.08,-2.52 4.7,-5.04c-0.51,-4.65 -1.78,-5.31 -6.35,-3.59c-2.79,1.06 -5.08,1.2 -7.49,0.27c-0.23,-0.08 -1.42,-0.48 -3.55,-1.2l-0.38,-23.61l-0.26,-23.48c4.19,0 6.52,0 6.98,0c6.86,0 6.99,0 6.99,-3.98c0,-3.98 -0.13,-3.98 -6.99,-3.98c-0.46,0 -2.79,0 -6.98,0l0,-11.28l0,-11.28l-5.07,0l-5.08,0l0,11.28l0,11.28z"/>
  <path id="g1vbZLB3Jl" d="m6.96,59.17c-3.17,4.25 -3.55,11.28 -0.76,15.66c2.92,4.64 47.99,35.55 50.53,34.63c2.28,-1.07 3.55,-3.98 2.66,-6.37c-0.25,-0.8 -10.15,-8.23 -21.71,-16.19c-22.72,-15.65 -24.5,-17.11 -24.5,-19.9c0,-1.06 10.41,-9.15 22.98,-18.18c12.7,-9.02 23.36,-17.11 23.61,-18.04c0.89,-2.12 -1.9,-5.57 -4.57,-5.57c-1.14,0 -11.8,6.76 -23.74,15.12c-11.93,8.36 -22.97,16.85 -24.5,18.84z"/>
  <path id="b7zwtrCUi" d="m125.28,31.18c0.5,1.06 10.79,8.89 22.97,17.38c21.2,14.73 24.5,17.78 22.85,20.56c-0.38,0.8 -10.91,8.49 -23.48,17.25c-23.11,16.05 -25.9,19.11 -20.57,22.29c2.92,1.59 5.33,0.26 30.34,-17.25c21.96,-15.26 24.38,-18.17 22.85,-26.8c-1.01,-5.97 -4.19,-8.75 -28.05,-25.34c-19.68,-13.66 -25.26,-16.18 -26.79,-12.07c-0.5,1.06 -0.5,2.92 -0.12,3.98z"/>
  <path id="d1GF7tmSz2" d="m310.23,74.96c0,13.67 8,26.8 19.3,31.71c6.98,3.05 20.56,2.79 27.17,-0.66c5.2,-2.52 13.2,-10.62 13.2,-13.14c0,-0.66 -1.91,-1.59 -4.19,-1.99c-3.68,-0.79 -4.83,-0.26 -8.63,3.72c-12.44,13 -31.61,6.1 -35.93,-12.74c-0.05,-0.24 -0.3,-1.43 -0.76,-3.58l26.78,0l26.79,0c-0.31,-4.22 -0.47,-6.57 -0.51,-7.03c-1.01,-12.34 -7.74,-22.69 -18.15,-27.6c-6.35,-3.05 -19.8,-3.18 -26.02,-0.4c-11.05,5.04 -19.05,18.18 -19.05,31.71zm53.32,-6.37c0,0.21 0,1.22 0,3.05c-12.95,0 -20.14,0 -21.58,0c-13.96,0 -21.58,-0.53 -21.58,-1.32c0,-2.52 3.81,-11.15 6.09,-13.8c6.35,-7.43 16.63,-9.55 25.26,-5.18c5.08,2.39 11.81,12.34 11.81,17.25z"/>
  <path id="c2arzz6cZ" d="m508.65,59.04c-6.48,13.13 -3.3,32.5 6.85,41.79c6.22,5.84 12.32,7.96 21.84,7.96c9.9,0 20.05,-4.38 24.24,-10.61c3.43,-5.04 3.18,-6.24 -1.27,-7.3c-3.04,-0.66 -4.44,-0.13 -7.99,3.72c-5.72,5.83 -13.97,8.22 -20.44,5.83c-5.71,-1.99 -12.06,-8.09 -14.22,-13.79c-3.55,-8.76 -4.57,-8.36 25.01,-8.36c1.79,0 10.76,0 26.91,0c-0.53,-4.06 -0.83,-6.32 -0.89,-6.77c-1.78,-13.93 -10.15,-25.47 -20.94,-28.79c-7.49,-2.39 -17.78,-1.86 -24.25,1.19c-7.49,3.59 -11.04,7.04 -14.85,15.13zm43.67,-3.05c2.66,3.05 6.72,11.54 6.72,14.33c0,0.79 -7.61,1.32 -21.58,1.32c-20.82,0 -21.58,-0.13 -21.58,-2.65c0,-6.5 7.24,-16.32 13.97,-18.97c3.68,-1.46 12.82,-0.93 16.25,0.93c1.9,1.06 4.69,3.31 6.22,5.04z"/>
  <path id="a20pqz8wWN" d="m583.92,75.89c0.83,2.1 4.93,12.63 12.32,31.58l5.33,0l5.46,0c5.48,-14.17 8.53,-22.05 9.14,-23.62c5.08,-12.87 10.79,-27.6 12.82,-32.51c0.25,-0.6 1.47,-3.6 3.68,-9.02l-5.46,0.4l-5.33,0.4c-5.71,15.28 -8.88,23.77 -9.52,25.47c-5.33,13.93 -9.9,25.74 -10.28,26.27c-0.38,0.4 -2.03,-2.78 -3.56,-6.9c-1.52,-4.24 -5.96,-16.18 -9.9,-26.66c-0.47,-1.26 -2.84,-7.54 -7.11,-18.84c-2.89,0 -4.5,0 -4.82,0c-2.79,0 -4.95,0.39 -4.95,0.92c0,0.67 5.46,15.26 12.18,32.51z"/>
 </defs>
 <g>
  <title>background</title>
  <rect fill="none" id="canvas_background" height="402" width="582" y="-1" x="-1"/>
 </g>
 <g>
  <title>Layer 1</title>
  <use id="svg_3" fill="#ffffff" xlink:href="#b5QcysGl5"/>
  <use fill="#e67c8b" id="svg_5" stroke-opacity="0" stroke="#000000" xlink:href="#b5QcysGl5"/>
  <use id="svg_7" fill="#ffffff" xlink:href="#j8HbJ3sYZt"/>
  <use fill="#ffffff" id="svg_9" stroke-opacity="0" stroke="#000000" xlink:href="#j8HbJ3sYZt"/>
  <use id="svg_11" fill="#ffffff" xlink:href="#a15jBgL8Hj"/>
  <use fill="#e67c8b" id="svg_13" stroke-opacity="0" stroke="#000000" xlink:href="#a15jBgL8Hj"/>
  <use id="svg_15" fill="#ffffff" xlink:href="#ar4rvLYN8"/>
  <use fill="#e67c8b" id="svg_17" stroke-opacity="0" stroke="#000000" xlink:href="#ar4rvLYN8"/>
  <use id="svg_19" fill="#ffffff" xlink:href="#a2a7KJ5gn7"/>
  <use fill="#ffffff" id="svg_21" stroke-opacity="0" stroke="#000000" xlink:href="#a2a7KJ5gn7"/>
  <use id="svg_23" fill="#ffffff" xlink:href="#g1vbZLB3Jl"/>
  <use fill="#ffffff" id="svg_25" stroke-opacity="0" stroke="#000000" xlink:href="#g1vbZLB3Jl"/>
  <use id="svg_27" fill="#ffffff" xlink:href="#b7zwtrCUi"/>
  <use fill="#ffffff" id="svg_29" stroke-opacity="0" stroke="#000000" xlink:href="#b7zwtrCUi"/>
  <use id="svg_31" fill="#ffffff" xlink:href="#d1GF7tmSz2"/>
  <use fill="#ffffff" id="svg_33" stroke-opacity="0" stroke="#000000" xlink:href="#d1GF7tmSz2"/>
  <use id="svg_35" fill="#ffffff" xlink:href="#c2arzz6cZ"/>
  <use fill="#ffffff" id="svg_37" stroke-opacity="0" stroke="#000000" xlink:href="#c2arzz6cZ"/>
  <use id="svg_39" fill="#ffffff" xlink:href="#a20pqz8wWN"/>
  <use fill="#ffffff" id="svg_41" stroke-opacity="0" stroke="#000000" xlink:href="#a20pqz8wWN"/>
 </g>
</svg>